# xmcd CD database file
#
# Track frame offsets:
#	150
#	13706
#	27741
#	43999
#	59315
#	76065
#	92945
#	109105
#	124298
#	148790
#	166836
#	180421
#	194536
#	210994
#	229782
#	252680
#	268528
#
# Disc length: 3920 seconds
#
# Revision: 0
# Processed by: cddbd v1.5.2PL0 Copyright (c) Steve Scherf et al.
# Submitted via: CDex 1.51
#
DISCID=f40f4e11
DTITLE=Tom Russell - Lost Angels of Lyon: Live 1989 Lyon, France
DYEAR=2007
DGENRE=Country
TTITLE0=The Heart of a Working Man
TTITLE1=Spanish Burgundy
TTITLE2=Honkytonk Heart
TTITLE3=Love Makes a Fool of the Wise
TTITLE4=Downtown Train
TTITLE5=Veteran's Day
TTITLE6=I'm On Fire
TTITLE7=Mezcal
TTITLE8=El Guero Polka - La Frontera
TTITLE9=Under the Gun
TTITLE10=Streets of Baltimore
TTITLE11=White Lightning
TTITLE12=Joshua Tree
TTITLE13=The Road to Bayamon
TTITLE14=Cumbia - Reason to Believe
TTITLE15=Boppin' the Blues
TTITLE16=Little Queenie
EXTD=YEAR: 2007
EXTT0=
EXTT1=
EXTT2=
EXTT3=
EXTT4=
EXTT5=
EXTT6=
EXTT7=
EXTT8=
EXTT9=
EXTT10=
EXTT11=
EXTT12=
EXTT13=
EXTT14=
EXTT15=
EXTT16=
PLAYORDER=
